# xmcd
#
# Track frame offsets: 
#        150
#        18602
#        34915
#        52992
#        68655
#        77697
#        96670
#        109550
#        125904
#        144667
#
# Disc length: 2267 seconds
#
# Revision: 1
# Processed by: cddbd v1.5.2PL0 Copyright (c) Steve Scherf et al.
# Submitted via: ExactAudioCopyFreeDBPlugin 1.0
#
DISCID=8c08d90a
DTITLE=Lee Fields - Faithful Man
DYEAR=2012
DGENRE=Soul
TTITLE0=Faithful Man
TTITLE1=I Still Got It
TTITLE2=Your're The Kind Of Girl
TTITLE3=Still Hanging On
TTITLE4=Intermission
TTITLE5=Wish You Were Here
TTITLE6=Who Do You Love
TTITLE7=Moonlight Mile
TTITLE8=It's All Over (But The Crying)
TTITLE9=Walking On Thru That Door
EXTD=
EXTT0=
EXTT1=
EXTT2=
EXTT3=
EXTT4=
EXTT5=
EXTT6=
EXTT7=
EXTT8=
EXTT9=
PLAYORDER=
